<svg style="display: none">
    <symbol
            id="icon-edit"
            xmlns="http://www.w3.org/2000/svg"
            viewBox="0 0 28 28"
            fill="inherit"
    >
        <path d="M20.1497 7.93997L8.27971 19.81C7.21971 20.88 4.04971 21.3699 3.27971 20.6599C2.50971 19.9499 3.06969 16.78 4.12969 15.71L15.9997 3.84C16.5478 3.31801 17.2783 3.03097 18.0351 3.04019C18.7919 3.04942 19.5151 3.35418 20.0503 3.88938C20.5855 4.42457 20.8903 5.14781 20.8995 5.90463C20.9088 6.66146 20.6217 7.39189 20.0997 7.93997H20.1497Z"
              stroke="#000000" stroke-width="1.5" stroke-linecap="round" stroke-linejoin="round"></path>
        <path d="M21 21H12" stroke="#000000" stroke-width="1.5" stroke-linecap="round" stroke-linejoin="round"></path>
    </symbol>

    <symbol
            id="icon-delete"
            xmlns="http://www.w3.org/2000/svg"
            viewBox="0 0 28 28"
            fill="inherit"
    >
        <path d="M6 5H18M9 5V5C10.5769 3.16026 13.4231 3.16026 15 5V5M9 20H15C16.1046 20 17 19.1046 17 18V9C17 8.44772 16.5523 8 16 8H8C7.44772 8 7 8.44772 7 9V18C7 19.1046 7.89543 20 9 20Z"
              stroke="#000000" stroke-width="2" stroke-linecap="round" stroke-linejoin="round"></path>
    </symbol>

    <symbol id="icon-done"
            viewBox="0 0 24 24" role="img" xmlns="http://www.w3.org/2000/svg" aria-labelledby="circleOkIconTitle"
            stroke="#000000" stroke-width="2" stroke-linecap="round" stroke-linejoin="round" fill="none"
            color="#000000">
        <g id="SVGRepo_bgCarrier" stroke-width="0"></g>
        <g id="SVGRepo_tracerCarrier" stroke-linecap="round" stroke-linejoin="round"></g>
        <g id="SVGRepo_iconCarrier">
            <title id="circleOkIconTitle">OK</title>
            <polyline points="7 13 10 16 17 9"></polyline>
            <circle cx="12" cy="12" r="10"></circle>
        </g>
    </symbol>
</svg>
